<svg width="43" height="38" viewBox="0 0 43 38" fill="none" xmlns="http://www.w3.org/2000/svg">
<path d="M41.1743 7.45825C39.2939 3.32674 35.4008 0.519425 31.0574 0.0956802C27.535 -0.222129 24.0656 0.678329 21.2848 2.66463C21.2583 2.69112 21.2318 2.7176 21.2053 2.7176C21.1788 2.69112 21.1524 2.66463 21.1259 2.66463C18.3186 0.678329 14.8492 -0.222129 11.3533 0.122164C6.98339 0.519425 3.11672 3.32674 1.20987 7.45825C-0.829407 11.8811 -0.273242 16.966 2.74594 21.7596C7.14229 28.7514 14.6638 33.7304 20.1989 36.6702L21.0729 37.0939V37.1204H21.0994H21.1259L22.1852 36.6967C27.7204 33.7569 35.2684 28.7779 39.6382 21.7861C42.6574 16.966 43.2136 11.8811 41.1743 7.45825ZM36.0364 19.2437C32.4081 25.0437 26.1049 29.3606 21.1524 32.1149V32.0355C16.1998 29.3076 9.97609 24.9907 6.37426 19.2437C4.22905 15.8272 3.8053 12.3578 5.12951 9.44455C6.34777 6.79615 8.94321 4.91578 11.724 4.65094C14.0281 4.43907 16.1998 4.94226 18.0008 5.97514C16.9414 7.48473 16.1998 9.17971 15.8291 11.0071C15.114 14.3706 15.6702 17.6546 17.2592 19.7469C18.2921 21.0975 19.6957 21.8391 21.1788 21.8656C21.1788 21.8656 21.1788 21.8656 21.2053 21.8656C21.2053 21.8656 21.2053 21.8656 21.2318 21.8656C22.7149 21.8656 24.1186 21.0975 25.1515 19.7469C26.767 17.6546 27.2967 14.3706 26.5816 11.0071C26.3168 9.73588 25.8665 8.51761 25.2574 7.3788C23.8802 8.14683 22.7414 9.23268 21.9204 10.5569C22.1058 11.0071 22.2382 11.5103 22.3441 12.0135C22.8473 14.4236 22.3441 16.1715 21.7615 16.9131C21.682 17.0455 21.4437 17.3103 21.2053 17.3103C20.967 17.3103 20.7551 17.019 20.6492 16.9131C20.0665 16.145 19.5633 14.3971 20.0665 12.0135C21.0464 7.27286 25.5222 4.20071 30.6601 4.67742C33.4674 4.94226 36.0629 6.82263 37.2547 9.47104C38.6054 12.3578 38.1551 15.8272 36.0364 19.2437Z" fill="#FF9C08"/>
</svg>
